<svg width="96" height="33" fill="none" xmlns="http://www.w3.org/2000/svg"><path fill-rule="evenodd" clip-rule="evenodd" d="M19.303 16.0795h-4.2001l1.4057-1.3798H24l-1.1032 1.091c-.2047.1857-.3416.3971-.3416.7053v6.0275C19.0592 23.4855 16.0326 24 12.624 24 5.5941 24 0 19.4245 0 11.8291 0 6.4931 4.195 0 13.3724 0c4.1806 0 7.1054 1.2844 9.1253 2.6359l-3.1935 3.158V3.8907c-1.7031-1.5268-3.6068-2.623-6.8785-2.623-5.1703 0-8.8763 3.9666-8.8763 9.6214 0 5.7657 4.0972 11.6693 11.0683 11.6693 1.7201 0 3.3748-.2284 4.6853-.6448v-5.834ZM33.4129 8C28.2185 8 25 11.6897 25 15.6061 25 18.9865 27.5929 23 32.8461 23 37.8995 23 41 19.3031 41 15.3181c0-3.7119-3.03-7.3167-7.5871-7.3167V8Zm-.8618 1.0757c3.6622 0 5.2931 4.6381 5.2931 7.9462 0 4.9198-3.7967 5.0171-4.2506 5.0171-1.7375 0-2.9518-1.0208-3.8608-2.3596-.8001-1.2339-1.5823-3.5263-1.5823-5.7662 0-2.2311.7513-3.3205 1.9336-4.122.9669-.6008 1.8721-.7155 2.4657-.7155h.0013ZM67.4159 8c-4.3839 0-6.7554 2.8954-6.7554 6.1281 0 2.4611 1.69 5.2376 5.1767 5.2376h.8821s-.2402.6088-.2415 1.1969c0 .8675.2986 1.3547.9329 2.1044C61.4112 23.0483 59 25.5727 59 28.2858 59 30.6617 61.1809 33 65.764 33 71.1898 33 74 29.8576 74 26.7736c0-2.1741-1.0383-3.3659-3.6676-5.4211-.7732-.6269-.9231-1.0262-.9231-1.4954 0-.6597.3713-1.1004.5185-1.2752l.0081-.0096c.1642-.1807.4075-.3782.6005-.5347l.0001-.0001.0003-.0003c.0995-.0808.1856-.1507.2404-.2017.8835-.7807 2.1312-1.9361 2.1312-4.2422 0-1.5822-.6308-2.9432-2.068-4.2177h1.7545l1.3184-1.3753h-6.4974V8Zm-1.2093 1.0289c.7955 0 1.4595.2934 2.1608.9022.778.7316 2.021 2.6976 2.021 5.1303 0 2.6252-1.9552 3.3439-3.0134 3.3439-.5179 0-1.1385-.1512-1.664-.5261-1.1672-.7896-2.3259-2.8915-2.3259-5.3926 0-2.2569 1.2887-3.4577 2.8215-3.4577Zm2.3108 14.6632s-.2405-.0286-.5749-.0286c-4.5016.0658-6.1421 1.8369-6.1421 3.8948 0 2.4843 2.394 4.0056 5.5262 4.0056 2.8535 0 4.6155-1.5536 4.6155-3.5352 0-1.4413-.8004-2.2505-2.084-3.3091-.5514-.4394-1.3407-1.0275-1.3407-1.0275ZM81.0301 23h-6.3668l1.1666-1.1542c.1914-.1964.2806-.3877.2806-.6688V1.4027H74L75.4131 0h5.4296l-1.1485 1.1399c-.1283.1224-.304.315-.304.691v19.0899c0 .4086.2922.8302.7838.89l1.826.2264-.9699.9628ZM82 15.2021C82 10.5765 85.8224 8 89.4207 8h.0013c3.817 0 5.4781 1.987 6.0672 3.9602l-10.1989 3.8727c.9738 3.5973 3.7574 5.5543 6.6445 5.5543 1.5192 0 2.6629-.4363 4.0652-1.1006-.7429.9336-1.7605 1.6765-2.8179 2.1339-.9858.4251-2.038.5795-3.3157.5795C84.7424 23 82 19.0224 82 15.2021Zm10.0807-3.4839c0-1.1679-1.3956-2.66-3.3262-2.66-1.2762 0-3.8635.8988-3.8635 4.2605 0 .8015.1697 1.5431.1697 1.5431l6.2691-2.382c.499-.1845.7509-.3839.7509-.7616ZM51.4129 8C46.2185 8 43 11.6897 43 15.6061 43 18.9865 45.5928 23 50.8461 23 55.8995 23 59 19.3031 59 15.3181c0-3.7119-3.03-7.3167-7.5871-7.3167V8Zm-.8618 1.0757c3.6622 0 5.2931 4.6381 5.2931 7.9462 0 4.9198-3.7967 5.0171-4.2506 5.0171-1.7375 0-2.9518-1.0208-3.8608-2.3596-.8001-1.2339-1.5823-3.5263-1.5823-5.7662 0-2.2311.7513-3.3205 1.9336-4.122.9669-.6008 1.8721-.7155 2.4657-.7155h.0013Z" fill="#fff"/></svg>