<svg width="140" height="27" fill="none" xmlns="http://www.w3.org/2000/svg"><path fill-rule="evenodd" clip-rule="evenodd" d="M39.4573 0H22.8514l-.7543 2.0212c6.5844.3146 11.8181 5.3025 11.8181 11.4087 0 5.6758-4.522 10.3848-10.4472 11.2739l-.7109 2.169h16.7002c.9356.0036 1.8342-.3721 2.4972-1.0443.6631-.6721 1.036-1.5854 1.0363-2.538V3.57c0-1.9892-1.5826-3.57-3.5335-3.57ZM9.0539 13.4307c0 4.997 3.5171 9.4073 8.4096 11.0102l-.8538 2.4319H3.5253C1.5782 26.8728 0 25.2477 0 23.2639V3.5975C-.0012 1.6135 1.5766.0037 3.5253.0008h13.5079l-.8471 2.3998c-4.0776 2.204-7.1322 6.6372-7.1322 11.0301Zm122.4991 2.9605h-7.715V26.981h7.668c2.777 0 2.964-2.7313 2.964-4.2169v-3.1144c0-1.8689-.941-3.2585-2.917-3.2585Zm.518 6.6609v-3.0192c.048-.6697-.422-1.4369-1.129-1.4369h-4.706v6.1809h4.518c.846 0 1.317-.8152 1.317-1.7248Zm-11.546-.1874c.567-.4815.944-1.2022.944-3.1259 0-2.1637-1.463-3.3659-3.161-3.3659h-6.938v10.6263h2.36v-3.1258h4.057c.945 0 1.417.7694 1.417 1.2022v1.9229h2.265v-2.2117c0-.6247-.189-1.5374-.944-1.9221Zm-6.796-1.2022h4.341c.898 0 1.133-1.1062 1.133-1.6342 0-.5302-.235-1.4429-1.416-1.4429h-4.058v3.0771Zm-8.917-5.269h-3.104l-4.1858 9.1003v1.4849h1.8813l.8465-1.9161h6.011l.857 1.9161h2.447l-4.753-10.5852Zm-1.552 1.9641-2.022 4.5025h4.036l-2.014-4.5025Zm-16.6497 8.6325V16.3828h2.4043v3.9838h1.0364l4.0993-3.9838h3.2043l-5.0429 4.9917 4.1936 4.2237v1.3919h-1.7907l-4.475-4.4165h-1.225v4.4165h-2.4043Zm-12.6264-2.505V18.887c0-1.1953 1.2684-2.4874 2.3961-2.4874h5.7808c1.5041.0472 2.3953 1.6273 2.3953 2.5362v.9081h-2.3953c-.0487-.4784-.4707-1.1953-.8464-1.1953h-4.1359c-.9392 0-.7977.9569-.7977.9569v4.21c0 .7656.4692.9568.7513.9568h4.088c.8928 0 .9878-.7656.9878-1.2441h2.349v.9569c0 1.5793-1.0798 2.4882-2.3954 2.4882h-5.7336c-1.7862 0-2.444-1.3881-2.444-2.4882Zm-5.8204-8.1122H65.049L60.1879 27h2.548l.8501-1.9229h6.03L70.4758 27h2.4545l-4.7668-10.6271Zm-1.558 1.9709-2.0287 4.5209h4.011l-1.9823-4.5209Zm-9.1123-1.9549h-7.5789V26.984h2.4006v-2.9727h5.1776c1.4121 0 3.0127-.8145 3.0127-3.7872.0008-3.02-1.7413-3.8352-3.012-3.8352Zm-5.1783 5.4176h4.6134c1.0356 0 1.0356-1.1024 1.0356-1.5816 0-.4792 0-1.6304-1.1771-1.6304h-4.4719v3.212ZM49.9143.1737v10.5951h2.4006V6.5496h6.2604v4.2192h2.4006V.1737h-2.4006v4.1711h-6.2604V.1737h-2.4006ZM65.0931.1668h8.0108V2.377h-7.2572v1.9678h6.0322v2.2079h-6.0322v2.0158h7.2572v2.2079h-8.1522c-.9429 0-1.5078-.768-1.5078-1.392V1.7516c0-.9607.5649-1.5847 1.6492-1.5847Zm27.3533.0107v9.0066c0 .8144.6121 1.5809 1.6942 1.5809h7.0584V8.561h-6.352V.1774h-2.4006Zm27.3356 2.1972v8.4017h-2.403V2.3747h-3.465V.1653h9.38v2.2094h-3.512Zm11.115 8.4085v-8.413h3.515V.1584h-9.389V2.37h3.468v8.4131h2.406ZM104.148.1714h8.005V2.377h-7.252v1.967h6.028v2.2064h-6.028v2.0143h7.252v2.2063h-8.147c-.942 0-1.507-.7671-1.507-1.391V1.7544c0-.9599.565-1.583 1.649-1.583ZM85.8882 10.787c-.7087 0-1.3927-1.0818-1.5349-1.6113l-1.7697-5.5562-2.3138 7.1683h-1.463c-.7086 0-1.323-1.1062-1.4644-1.635L74.4628.1563h2.4074l2.2202 7.2642L81.4506.2042h2.2652l2.3602 7.2162L88.2947.1562h2.4089L87.304 10.7878h-1.4158v-.0008ZM137.664.0937c.621-.01 1.219.2404 1.653.6925.454.4617.683 1.021.683 1.6769.009.6335-.238 1.2432-.683 1.686-.455.4654-1.007.6986-1.653.6986-.647 0-1.197-.2324-1.65-.6987-.451-.464-.676-1.0254-.676-1.686-.009-.6307.238-1.2373.682-1.6768.454-.4609 1.001-.6925 1.644-.6925Zm1.421 3.8253c-.371.3928-.886.6108-1.421.6018-.535.0096-1.05-.2085-1.42-.6018-.381-.3841-.592-.9106-.582-1.4567 0-.5653.195-1.0475.585-1.4467.391-.4008.863-.602 1.418-.602.554 0 1.029.2012 1.42.602.39.3992.585.8814.585 1.4467 0 .5699-.195 1.0552-.585 1.4567ZM18.3261 0 12 18.0009v.0007h2.6717l3.0929-8.664h.8434c.5614 0 .5614.4165.4682.8802l-2.7648 7.7838h2.7648s2.3898-6.5786 2.8119-7.9688c.4213-1.3902-.4221-2.0853-2.0625-2.0853h-1.5934L21.044 0h-2.7179Zm6.133 7.9018h4.3732c1.3161 0 2.6806.698 1.9753 2.6057l-2.0222 5.6764c-.3759 1.0703-.7054 1.8148-2.6807 1.8148h-2.4725L20.8382 26h-2.6806l6.3015-18.0982ZM28.08 9.9959s-1.9753 5.5364-2.0222 5.8158c-.047.2794-.2826.7909-.7524.7909h-1.1863l2.5501-7.3047h1.1759c.4228 0 .3758.3258.2349.698Z" fill="#fff"/></svg>