<svg width="135" height="38" fill="none" xmlns="http://www.w3.org/2000/svg"><g fill="#36536B"><path fill-rule="evenodd" clip-rule="evenodd" d="M134.657 8.5902v-3.296h-1.216v3.296h1.216Zm-84.113 25.344v-7.84h.064c.5547.8107 1.264 1.424 2.128 1.84.864.416 1.808.624 2.832.624 1.216 0 2.2773-.2347 3.184-.704.9067-.4693 1.664-1.0987 2.272-1.888.608-.7893 1.0613-1.696 1.36-2.72.2987-1.024.448-2.0907.448-3.2 0-1.1733-.1493-2.2987-.448-3.376-.2987-1.0773-.7573-2.0213-1.376-2.832-.6187-.8107-1.3973-1.4613-2.336-1.952-.9387-.4907-2.0587-.736-3.36-.736-1.024 0-1.9627.2027-2.816.608s-1.5573 1.056-2.112 1.952h-.064v-2.112H46v22.336h4.544Zm3.808-8.768c-.7253 0-1.344-.1493-1.856-.448s-.9227-.688-1.232-1.168-.5333-1.04-.672-1.68a9.1899 9.1899 0 0 1-.208-1.952c0-.6827.064-1.344.192-1.984.128-.64.3467-1.2053.656-1.696.3093-.4907.7147-.8907 1.216-1.2.5013-.3093 1.1253-.464 1.872-.464.7253 0 1.3387.1547 1.84.464.5013.3093.912.7147 1.232 1.216.32.5013.5493 1.072.688 1.712.1387.64.208 1.2907.208 1.952a9.929 9.929 0 0 1-.192 1.952c-.128.64-.3467 1.2-.656 1.68s-.7147.8693-1.216 1.168c-.5013.2987-1.1253.448-1.872.448Zm18.8898 2.944a10.274 10.274 0 0 1-3.008.448c-.7893 0-1.5253-.096-2.208-.288-.6826-.192-1.28-.4907-1.792-.896s-.912-.9173-1.2-1.536c-.288-.6187-.432-1.3547-.432-2.208 0-.9387.1654-1.712.496-2.32.3307-.608.7574-1.0933 1.28-1.456.5227-.3627 1.12-.6347 1.792-.816a19.1504 19.1504 0 0 1 2.032-.432 34.7105 34.7105 0 0 1 2.016-.256c.6614-.064 1.248-.16 1.76-.288.512-.128.9174-.3147 1.216-.56.2987-.2453.4374-.6027.416-1.072 0-.4907-.08-.88-.24-1.168-.16-.288-.3733-.512-.64-.672-.2666-.16-.576-.2667-.928-.32-.352-.0533-.7306-.08-1.136-.08-.896 0-1.6.192-2.112.576-.512.384-.8106 1.024-.896 1.92h-4.544c.064-1.0667.3307-1.952.8-2.656.4694-.704 1.0667-1.2693 1.792-1.696.7254-.4267 1.5414-.7307 2.448-.912a13.9208 13.9208 0 0 1 2.736-.272c.832 0 1.6747.0587 2.528.176.8534.1173 1.632.3467 2.336.688.704.3413 1.28.816 1.728 1.424.448.608.672 1.4133.672 2.416v8.608c0 .7467.0427 1.4613.128 2.144.0854.6827.2347 1.1947.448 1.536h-4.608a6.5377 6.5377 0 0 1-.208-.784 6.8492 6.8492 0 0 1-.112-.816c-.7253.7467-1.5786 1.2693-2.56 1.568Zm-1.312-2.56c-.3626 0-.7146-.032-1.056-.096-.3413-.064-.64-.176-.896-.336-.256-.16-.4586-.3787-.608-.656-.1493-.2773-.224-.6187-.224-1.024 0-.4267.0747-.7787.224-1.056.1494-.2773.3467-.5067.592-.688.2454-.1813.5334-.3253.864-.432a8.203 8.203 0 0 1 1.008-.256c.3627-.064.7254-.1173 1.088-.16.3627-.0427.7094-.096 1.04-.16.3307-.064.64-.144.928-.24.288-.096.528-.2293.72-.4v1.696c0 .256-.0266.5973-.08 1.024-.0533.4267-.1973.848-.432 1.264-.2346.416-.5973.7733-1.088 1.072-.4906.2987-1.184.448-2.08.448Zm17.6099 7.52c-.8747.576-2.0907.864-3.648.864-.4693 0-.9333-.016-1.392-.048a66.2288 66.2288 0 0 1-1.392-.112v-3.744c.4267.0427.864.0853 1.312.128a9.428 9.428 0 0 0 1.344.032c.5973-.064 1.04-.2987 1.328-.704.288-.4053.432-.8533.432-1.344 0-.3627-.064-.704-.192-1.024l-5.792-15.52h4.832l3.744 11.328h.064l3.616-11.328h4.704l-6.912 18.592c-.4907 1.344-1.1733 2.304-2.048 2.88Zm15.0503-4.544c.789 0 1.514-.096 2.176-.288.661-.192 1.253-.4587 1.776-.8.522-.3413.965-.7307 1.328-1.168.362-.4373.64-.9013.832-1.392h.064v.864c0 .3413.026.656.08.944.053.288.154.5387.304.752.149.2133.368.384.656.512.288.128.677.192 1.168.192.341 0 .672-.0427.992-.128v-1.024c-.384.064-.683.096-.896.096-.278 0-.491-.0587-.64-.176-.15-.1173-.256-.272-.32-.464s-.102-.4053-.112-.64a15.0324 15.0324 0 0 1-.016-.704v-9.568c0-1.2587-.454-2.2773-1.36-3.056-.907-.7787-2.352-1.168-4.336-1.168-1.984 0-3.515.4533-4.592 1.36-1.078.9067-1.659 2.2667-1.7445 4.08h1.2165c.085-1.472.581-2.5707 1.488-3.296.906-.7253 2.096-1.088 3.568-1.088.832 0 1.536.0853 2.112.256.576.1707 1.045.4053 1.408.704.362.2987.629.64.8 1.024.17.384.256.8.256 1.248 0 .576-.032 1.056-.096 1.44-.064.384-.224.6987-.48.944-.256.2453-.635.4373-1.136.576-.502.1387-1.19.24-2.064.304l-1.888.16c-.662.064-1.35.1707-2.064.32-.715.1493-1.366.4-1.952.752-.587.352-1.072.832-1.4565 1.44-.384.608-.576 1.392-.576 2.352 0 1.5787.48 2.7467 1.4405 3.504.96.7573 2.314 1.136 4.064 1.136Zm-3.136-1.936c.768.5867 1.824.88 3.168.88 1.386 0 2.485-.2507 3.296-.752.81-.5013 1.429-1.0773 1.856-1.728.426-.6507.698-1.28.816-1.888.117-.608.176-1.0187.176-1.232v-3.072c-.299.3627-.752.608-1.36.736-.608.128-1.286.224-2.032.288l-2.048.192c-.598.064-1.195.1547-1.792.272-.598.1173-1.136.3147-1.616.592-.48.2773-.87.656-1.168 1.136-.299.48-.448 1.104-.448 1.872 0 1.216.384 2.1173 1.152 2.704Zm15.657 7.44v-9.312h.064c.491 1.344 1.27 2.3147 2.336 2.912 1.067.5973 2.283.896 3.648.896 1.259 0 2.352-.2133 3.28-.64.928-.4267 1.696-1.0187 2.304-1.776.608-.7573 1.062-1.6587 1.36-2.704.299-1.0453.448-2.1973.448-3.456 0-1.152-.149-2.2507-.448-3.296-.298-1.0453-.752-1.9627-1.36-2.752-.608-.7893-1.376-1.4187-2.304-1.888-.928-.4693-2.021-.704-3.28-.704-.896 0-1.69.1387-2.384.416-.693.2773-1.285.624-1.776 1.04-.49.416-.885.8693-1.184 1.36-.298.4907-.512.9387-.64 1.344h-.064v-3.776h-1.216v22.336h1.216Zm3.152-7.184c.779.416 1.744.624 2.896.624 1.067 0 1.99-.2027 2.768-.608.779-.4053 1.419-.9493 1.92-1.632.502-.6827.875-1.4773 1.12-2.384.246-.9067.368-1.872.368-2.896 0-.9387-.117-1.8613-.352-2.768-.234-.9067-.597-1.7173-1.088-2.432-.49-.7147-1.125-1.2907-1.904-1.728-.778-.4373-1.722-.656-2.832-.656-1.088 0-2.016.2133-2.784.64-.768.4267-1.392.992-1.872 1.696-.48.704-.826 1.5093-1.04 2.416-.213.9067-.32 1.8507-.32 2.832 0 .9813.096 1.9253.288 2.832.192.9067.518 1.7067.976 2.4.459.6933 1.078 1.248 1.856 1.664Zm13.178-15.152h1.216v16.448h-1.216v-16.448Z"/><circle cx="19.1421" cy="5" r="3" transform="rotate(45 19.1421 5)"/><circle cx="26.2133" cy="12.071" r="3" transform="rotate(45 26.2133 12.071)"/><circle cx="33.2843" cy="19.1422" r="3" transform="rotate(45 33.2843 19.1422)"/><circle cx="12.071" cy="12.071" r="3" transform="rotate(45 12.071 12.071)"/><circle opacity=".5" cx="19.1421" cy="19.1422" r="3" transform="rotate(45 19.1421 19.1422)"/><circle opacity=".5" cx="26.2133" cy="26.2132" r="3" transform="rotate(45 26.2133 26.2132)"/><circle cx="5" cy="19.1422" r="3" transform="rotate(45 5 19.1422)"/><circle opacity=".5" cx="12.071" cy="26.2132" r="3" transform="rotate(45 12.071 26.2132)"/><circle opacity=".25" cx="19.1421" cy="33.2843" r="3" transform="rotate(45 19.1421 33.2843)"/></g></svg>