<svg width="145" height="31" fill="none" xmlns="http://www.w3.org/2000/svg"><path fill-rule="evenodd" clip-rule="evenodd" d="M15 15H0V0h15v15Zm130-.9389v-2.5213h-3.144V7.6202l-.105.0324-2.953.8998-.058.0176v2.97h-4.66V9.8855c0-.7705.173-1.36.514-1.7532.338-.3884.822-.586 1.44-.586.444 0 .903.1042 1.366.3096l.116.0516V5.2523l-.055-.02C137.03 5.0778 136.443 5 135.715 5c-.916 0-1.75.1987-2.476.5926-.727.3944-1.299.9575-1.699 1.6734-.4.715-.602 1.5409-.602 2.4548v1.819h-2.189v2.5213h2.189v10.6217h3.142V14.0611h4.66v6.7499c0 2.78 1.316 4.1887 3.913 4.1887.426 0 .875-.0498 1.334-.1473.467-.1001.785-.2001.972-.3069l.041-.0244v-2.5446l-.128.0842c-.17.1132-.383.2057-.632.2745-.25.07-.459.1051-.62.1051-.609 0-1.059-.1632-1.338-.4854-.282-.3251-.425-.8935-.425-1.6888v-6.205H145Zm-23.268 8.3796c-1.14 0-2.04-.3767-2.673-1.1186-.638-.7457-.961-1.8089-.961-3.1597 0-1.3936.323-2.4844.961-3.2433.634-.7538 1.525-1.1365 2.647-1.1365 1.09 0 1.957.3655 2.579 1.0868.624.725.941 1.807.941 3.2169 0 1.4272-.298 2.5235-.886 3.2569-.583.7278-1.461 1.0975-2.608 1.0975Zm-4.996-9.33c1.232-1.2525 2.96-1.8875 5.136-1.8875 2.049 0 3.675.6074 4.831 1.8058 1.155 1.1978 1.741 2.8654 1.741 4.9554 0 2.1159-.624 3.8329-1.856 5.1013-1.231 1.2698-2.925 1.9137-5.034 1.9137-2.024 0-3.66-.611-4.863-1.8173-1.202-1.2058-1.811-2.861-1.811-4.9188 0-2.1666.624-3.9 1.856-5.1526Zm-6.922-1.8875c-1.48 0-2.705.3771-3.64 1.1206-.941.7479-1.418 1.7288-1.418 2.9158 0 .617.103 1.1651.306 1.63.204.4664.519.877.939 1.2217.416.3418 1.058.6999 1.909 1.0642.716.2933 1.25.5414 1.589.737.331.1917.566.3843.699.5719.129.1836.195.4349.195.745 0 .883-.664 1.3127-2.03 1.3127-.507 0-1.085-.1054-1.718-.3132a6.467 6.467 0 0 1-1.759-.8884l-.13-.0932v3.0132l.047.0222c.445.2044 1.006.3768 1.666.5125.66.1357 1.259.2048 1.779.2048 1.606 0 2.9-.3789 3.843-1.1268.95-.7531 1.432-1.7571 1.432-2.9852 0-.8859-.26-1.6456-.77-2.2583-.508-.6078-1.388-1.1657-2.616-1.6589-.978-.391-1.605-.7157-1.863-.9649-.25-.2408-.376-.5812-.376-1.0124 0-.3822.156-.6884.477-.9364.323-.2492.773-.376 1.337-.376.523 0 1.059.0824 1.592.2438.532.1614 1 .3777 1.39.6421l.128.0874v-2.8583l-.049-.0211c-.36-.1538-.835-.2854-1.412-.3922-.574-.1061-1.094-.1596-1.547-.1596ZM93.8913 21.3221c.6335.7419 1.533 1.1186 2.6732 1.1186 1.1476 0 2.0246-.3697 2.6082-1.0975.5875-.7334.8853-1.8297.8853-3.2569 0-1.4099-.3164-2.4919-.9409-3.2169-.6214-.7213-1.4887-1.0868-2.5778-1.0868-1.1234 0-2.0138.3827-2.6473 1.1365-.638.7589-.9608 1.8497-.9608 3.2433 0 1.3511.3224 2.414.9601 3.1597Zm2.8133-10.0989c-2.1764 0-3.9047.635-5.1363 1.8875-1.2314 1.2526-1.8561 2.986-1.8561 5.1526 0 2.0586.6098 3.713 1.812 4.9188 1.2021 1.2063 2.838 1.8173 4.8621 1.8173 2.1088 0 3.8027-.6439 5.0347-1.9137 1.231-1.2684 1.855-2.9854 1.855-5.1013 0-2.09-.585-3.7576-1.741-4.9554-1.156-1.1984-2.7812-1.8058-4.8304-1.8058Zm-11.7621.3166v2.2761h.033c.29-.7386.6693-1.3309 1.1941-1.763.5979-.4914 1.2959-.7411 2.0759-.7411.5174 0 .9263.0617 1.2153.1841l.0503.0214v3.1168l-.1305-.0941c-.1436-.1032-.3873-.2012-.7237-.2915-.3399-.0909-.6537-.1368-.9333-.1368-.8248 0-1.5004.3552-2.0074 1.0561-.5134.7094-.7737 1.6486-.7737 2.7917v6.7231h-3.1038V11.5398h3.1038Zm-8.6622-.3166c-1.424 0-2.6941.3041-3.7744.9037-1.0826.6009-1.9198 1.4588-2.4894 2.5497-.5671 1.0882-.855 2.3594-.855 3.7771 0 1.2417.2791 2.3813.8309 3.3857.5521 1.006 1.3335 1.793 2.3226 2.3389.9877.5452 2.1293.8216 3.3933.8216 1.4751 0 2.7344-.2938 3.7442-.8731l.0408-.0233v-2.8323l-.1305.0948c-.4574.3319-.9685.5968-1.5185.7876-.5486.1907-1.0487.2871-1.4873.2871-1.2179 0-2.1956-.3796-2.9053-1.1279-.7112-.7493-1.0718-1.8015-1.0718-3.1255 0-1.3324.3761-2.4116 1.1172-3.208.7389-.7939 1.7184-1.1967 2.9111-1.1967 1.0202 0 2.0143.3441 2.9549 1.0237l.1302.0941v-2.9843l-.0421-.0236c-.3539-.1974-.8366-.3603-1.4359-.4839-.5968-.1233-1.1804-.1854-1.735-.1854Zm-12.3604.3168h3.1039v13.1426h-3.1039V11.54Zm1.5837-5.5989c-.5108 0-.9564.1732-1.3225.5165-.3675.3442-.554.7776-.554 1.289 0 .5035.1842.929.5483 1.264.3618.3341.8087.5034 1.3283.5034.5195 0 .9681-.1693 1.3342-.5028.3684-.3356.5553-.761.5553-1.2646 0-.4935-.1819-.9225-.5401-1.2752-.358-.352-.8122-.5303-1.3495-.5303Zm-7.7443 18.7415V10.5703h-.1022l-5.6213 14.1123h-2.2464l-5.7105-14.1137h-.1022v14.1135H41V6.3434h4.5626l5.4078 13.6218 5.5724-13.6218h4.3841v18.3392h-3.1676ZM16 15h15V0H16v15Zm-1 16H0V16h15v15Zm1 0h15V16H16v15Z" fill="#fff"/></svg>