<svg width="137" height="26" fill="none" xmlns="http://www.w3.org/2000/svg"><path fill-rule="evenodd" clip-rule="evenodd" d="M14.5407 0v3.5014l.689-.0434c8.8564-.3039 14.6411 7.3211 14.6411 7.3211s-6.6316 8.1313-13.5359 8.1313c-.6028 0-1.1914-.0579-1.7799-.1591v2.1702c.4881.0579.9905.1013 1.4785.1013 6.4306 0 11.0813-3.3133 15.5885-7.2198.3368.2742 1.1442.7222 1.9869 1.1899 1.0248.5687 2.1019 1.1664 2.4485 1.5157-4.2775 3.6172-14.2536 6.5253-19.9091 6.5253-.5454 0-1.0622-.0289-1.5789-.0868V26H39V0H14.5407Zm0 7.7552V5.4123l.0143-.0012v-.0009c.2249-.0141.4498-.028.6747-.028 6.3732-.2026 10.5502 5.527 10.5502 5.527s-4.5072 6.3083-9.3445 6.3083c-.6459 0-1.2775-.1013-1.8804-.3039V9.7952c2.338.2861 2.9201 1.2775 4.2141 3.4816.0804.1369.1636.2785.25.4249l3.3158-2.8069s-2.4258-3.1975-6.5024-3.1975c-.4306-.0145-.8612.0144-1.2918.0579Zm0 0v2.0255h-.0144c-2.4832-.3038-4.4354 2.0401-4.4354 2.0401s1.1053 3.9499 4.4498 5.0929v1.852c-5.9426-1.0707-7.5933-7.3066-7.5933-7.3066s2.8564-3.183 7.5933-3.704Zm.0143-2.3449-.0143.001v.001c-7.0383.5559-10.5503 5.7864-10.5503 5.7864s2.6842 8.739 10.5503 9.7228v2.0256C3.8182 21.9343 0 10.7935 0 10.7935S6.7464 4.138 14.555 3.5014v1.909ZM46 5v16.9856h4.8518V8.7969l3.7832.0144c1.2419 0 2.1083.302 2.7003.9349.7653.8054 1.0685 2.1142 1.0685 4.4873v7.7521h4.7074v-9.3773C63.1112 5.9061 58.8226 5 54.635 5H46Zm37.8324.0288V22h4.8085V5.0288h-4.8085ZM91.5866 22V5.0288h6.7435c3.8409 0 6.4109.4602 8.1729 2.8333.996 1.3232 1.56 3.4518 1.56 5.8393 0 2.6032-.665 4.9906-1.704 6.0693C104.9 21.3096 103.543 22 99.3842 22h-7.7976Zm4.7652-13.2893h2.0649c3.0033 0 4.9383 1.3375 4.9383 4.8181 0 3.4805-1.935 4.8325-4.9383 4.8325h-2.0649V8.7107ZM72.887 18.4763l4.0143-13.4475h4.9096L76.2659 22h-6.9311L63.8477 5.0288h5.1983l3.841 13.4475ZM110.315 22h4.809V5.0288h-4.809V22Zm6.772-.0144 6.715-16.9568h6.426L137 21.9712h-5.155l-1.011-2.9915h-7.942l-1.068 3.0059h-4.737Zm9.834-13.8646 2.917 7.9391h-5.921l3.004-7.9391Z" fill="#fff"/></svg>