<svg width="131" height="17" fill="none" xmlns="http://www.w3.org/2000/svg"><path fill-rule="evenodd" clip-rule="evenodd" d="M56.5539 11.06h8.656l-4.5771-7.351-8.4006 13.2907h-3.8231l10.2178-15.965C59.071.3897 59.8115 0 60.6328 0c.7942 0 1.5346.3762 1.9655 1.0078l10.2582 15.9919h-3.8231l-1.8038-2.9698h-8.7639L56.5539 11.06Zm39.7134 2.9696V.1612H93.023V15.387c0 .4166.1615.8199.4711 1.1289.3096.309.7269.4837 1.1846.4837h14.7953l1.912-2.9698H96.2671l.0002-.0003ZM48.3014 5.8591c0 3.1446-2.5578 5.6843-5.7082 5.6843l.0002.0006h-1.4809L47.6282 17h-4.7119l-9.6845-8.426 9.1462.0134c1.5078 0 2.7193-1.223 2.7193-2.7278 0-1.5051-1.2115-2.7283-2.7193-2.7283H31.6432V17h-3.2433V.161h14.1933c3.1504 0 5.7082 2.5532 5.7082 5.698ZM8.4357 16.9997C3.779 17 0 13.2371 0 8.5874c0-4.65 3.779-8.426 8.4357-8.426h9.8045c4.6577 0 8.4339 3.776 8.4339 8.426 0 4.6497-3.7762 8.4123-8.4341 8.4123H8.4357Zm15.0468-8.4126c0 3.0102-2.4434 5.4428-5.4603 5.4428H8.6524c-3.0156 0-5.4603-2.4326-5.4603-5.4425 0-3.0103 2.4447-5.456 5.4605-5.456h9.3696c3.0169 0 5.4603 2.4457 5.4603 5.4557Zm56.1455 8.4126c-4.6576 0-8.4408-3.7626-8.4408-8.4123 0-4.65 3.7832-8.426 8.4408-8.426h11.6452l-1.8985 2.97h-9.5312c-3.0156 0-5.4657 2.4457-5.4657 5.456 0 3.0099 2.4501 5.4425 5.4657 5.4425h11.6986l-1.9117 2.9698H79.628Zm34.423-6.9343c.646 2.2982 2.76 3.9645 5.251 3.9645H131l-1.912 2.9696h-10.002c-4.658 0-8.441-3.7627-8.441-8.4127 0-4.6497 3.783-8.4259 8.441-8.4259h11.658l-1.924 2.9704h-9.518c-2.491 0-4.605 1.6796-5.251 3.9642h15.778l-1.912 2.9699h-13.866Z" fill="#fff"/></svg>