<svg width="129" height="17" fill="none" xmlns="http://www.w3.org/2000/svg"><path fill-rule="evenodd" clip-rule="evenodd" d="M3.3545 3.4282C1.6543 3.0525.3676 1.5497 0 .047L21 0v.047c-.3676 1.5027-1.6083 2.9116-3.3545 3.3812H12.407l-.2757.0939V17H8.8687V3.5221l-.2757-.094H3.3545Zm29.0762-.0095h12.5174c1.7617-.3278 3.0598-1.92 3.3843-3.4187H29c.3709 1.4986 1.669 3.044 3.4307 3.4187Zm93.1853 0h-12.518c-1.715-.3746-3.013-1.92-3.384-3.4187H129c-.371 1.4986-1.623 3.091-3.384 3.4187ZM110.224 17V6.7438h18.359V17h-3.245v-6.8375h-11.869V17h-3.245Zm-9.875 0c1.623-.7025 2.504-1.9201 2.874-3.3251H88.6198V.0469h-3.2916V17h15.0208ZM72.579 3.3719H60.9889l.0463 3.3719h15.0209V17H56.8164c.7881-1.6391 2.3644-2.9036 4.2188-3.4187h11.7757v-3.5124H57.79V.0469h18.3588c-.3709 1.4517-1.808 2.8098-3.5698 3.325Zm-27.6309 6.7438H32.4307C30.669 9.741 29.3709 8.1956 29 6.697h19.3324c-.3245 1.4986-1.6226 3.0909-3.3843 3.4187ZM32.4307 17h12.5174c1.7617-.3278 3.0598-1.9201 3.3843-3.4187H29c.3709 1.4986 1.669 3.0909 3.4307 3.4187Z" fill="#fff"/></svg>